<?xml version="1.0" encoding="UTF-8" standalone="no"?>
<svg
   xmlns:dc="http://purl.org/dc/elements/1.1/"
   xmlns:cc="http://creativecommons.org/ns#"
   xmlns:rdf="http://www.w3.org/1999/02/22-rdf-syntax-ns#"
   xmlns:svg="http://www.w3.org/2000/svg"
   xmlns="http://www.w3.org/2000/svg"
   xmlns:sodipodi="http://sodipodi.sourceforge.net/DTD/sodipodi-0.dtd"
   xmlns:inkscape="http://www.inkscape.org/namespaces/inkscape"
   viewBox="0 0 707.96002 666.65332"
   height="666.65332"
   width="707.96002"
   xml:space="preserve"
   id="svg29"
   version="1.1"
   sodipodi:docname="GitHub-Mark.svg"
   inkscape:version="0.92.3 (2405546, 2018-03-11)"><sodipodi:namedview
     pagecolor="#ffffff"
     bordercolor="#666666"
     borderopacity="1"
     objecttolerance="10"
     gridtolerance="10"
     guidetolerance="10"
     inkscape:pageopacity="0"
     inkscape:pageshadow="2"
     inkscape:window-width="1301"
     inkscape:window-height="715"
     id="namedview98"
     showgrid="false"
     inkscape:zoom="0.50064162"
     inkscape:cx="62.67127"
     inkscape:cy="282.90416"
     inkscape:window-x="65"
     inkscape:window-y="27"
     inkscape:window-maximized="1"
     inkscape:current-layer="g39" /><metadata
     id="metadata35"><rdf:RDF><cc:Work
         rdf:about=""><dc:format>image/svg+xml</dc:format><dc:type
           rdf:resource="http://purl.org/dc/dcmitype/StillImage" /><dc:title /></cc:Work></rdf:RDF></metadata><defs
     id="defs33" /><g
     transform="matrix(1.3333333,0,0,-1.3333333,0,666.65333)"
     id="g37"><g
       transform="scale(0.1)"
       id="g39"><path
         id="path133"
         style="fill:#ffffff;fill-opacity:1;fill-rule:evenodd;stroke:none;stroke-width:6.90819216"
         d="m 2826.2509,3621.3883 c -621.3228,0 -1125.2063,-503.8144 -1125.2063,-1125.3444 0,-497.1826 322.4053,-918.9277 769.5726,-1067.7302 56.3017,-10.3623 76.8191,24.3859 76.8191,54.2293 0,26.7347 -0.9672,97.4746 -1.5198,191.3569 -313.0102,-67.9766 -379.0525,150.8749 -379.0525,150.8749 -51.1897,130.0122 -124.9692,164.6222 -124.9692,164.6222 -102.1722,69.7728 7.7371,68.3912 7.7371,68.3912 112.949,-7.9445 172.3594,-115.9886 172.3594,-115.9886 100.3761,-171.9449 263.4094,-122.275 327.5174,-93.4678 10.2241,72.6741 39.3076,122.275 71.4307,150.3913 -249.8693,28.3927 -512.5878,124.9692 -512.5878,556.1785 0,122.8277 43.867,223.3419 115.8504,301.9571 -11.6058,28.4618 -50.2226,142.9305 11.0531,297.8122 0,0 94.4349,30.2579 309.4179,-115.3668 89.7374,25.0076 186.0376,37.4424 281.716,37.9259 95.6094,-0.4835 191.8405,-12.9183 281.7161,-37.9259 214.8448,145.6247 309.1416,115.3668 309.1416,115.3668 61.4138,-154.8817 22.797,-269.3504 11.2604,-297.8122 72.1215,-78.6152 115.6431,-179.1294 115.6431,-301.9571 0,-432.3146 -263.133,-527.4404 -513.7622,-555.2804 40.3438,-34.7482 76.3355,-103.4157 76.3355,-208.3511 0,-150.4604 -1.3817,-271.8374 -1.3817,-308.7271 0,-30.1197 20.3101,-65.1442 77.3718,-54.1602 446.8219,149.1478 768.9508,570.6166 768.9508,1067.6611 0,621.53 -503.8835,1125.3444 -1125.4135,1125.3444"
         inkscape:connector-curvature="0" /></g></g></svg>